<svg width="378" height="400" version="1.1" xmlns="http://www.w3.org/2000/svg" style="fill:#e6e6e6;stroke-width:2;stroke:#000"><path d="m279.66 374.71 12.011-5.5728m24.022-11.146 12.011-5.5728m-24.022 11.146 12.011-5.5728m-24.022 11.146 12.011-5.5728" style="stroke-width:3"/><path d="m256.36 487.8 24.898 0.51336c-2.313-9.6706-7.1359-25.469-1.7967-33.111 5.0811-4.463 14.469-17.943 2e-5 -24.384-7.8996-10.468 5.2163-16.879 6.4169-23.101 2.7633-8.9883-2.1186-13.729-5.1335-19.507-2.0818-20.237 1.2614-41.888 14.887-66.223 32.357-44.68 26.743-48.177 17.063-38.641-6.3752 6.2804-12.334 19.813-18.09 25.294-6.4282 3.9244-9.7077-2.2129-3.6935-6.4734 5.7705-4.0879 10.783-11.368 19.714-37.985 24.706-178.45-196.46-117.89-169.46-75.182 28.628 33.053-14.677 27.013-33.419 2.3388l-3.0801 33.111c-2.7911-6.0925-9.6399-31.663-20.963-39.307-17.036-8.9181-26.347 11.71-15.018 27.73 11.495 16.255 8.6903 24.221 7.974 39.531-0.72436 15.483-30.943 47.203 9.5267 74.973 64.714 8.2859 178.72-34.066 178.9 25.668 1.0911 18.285-15.333 38.921-16.027 54.415-1.3563 30.306 11.051 52.548 7.2998 80.34z"/><path d="m360.83 487.8 170.95 1.0267c-6.3912-59.243-13.328-118.18 2.5668-178.65 6.4666-12.733 15.101-30.264 23.104-37.388 12.911-11.493 25.29-25.102 32.852-45.262 19.289-44.528 28.826-117.25 27.742-188.53-0.95993-63.116-10.818-134.38-54.95-198.03-36.116-51.883-129.93-106.41-283.88-86.243-175.2 52.486-194.47 120.95-200.21 138.09-3.7765 36.542 13.747 56.022 8.2136 85.217-19.752 40.433-51.633 78.907-82.137 113.96 0.6087 7.415-8.4371 18.968 18.994 14.887l32.341-46.202c14.192-19.712 45.295-55.755 131.93-44.662 46.124-6.5966 63.522-3.9834 82.177 21.841 7.5834 17.492 12.913 21.503 31.408 29.448 32.157 55.976 40.741 131.37 49.148 189.99z"/><path d="m303.83 92.236c-5.084 0.06833-10.744 1.4692-15.057 0.83203-4.9981-0.3467-10.013-0.39347-15.021-0.33984-22.484 0.24075-47.333 3.0615-67.391 2.9727-9.4222-0.0614-18.84 0.12917-28.252 0.53711-5.64 0.17383-11.281 0.34676-16.924 0.49609s-44.395 0.47052-58.113-0.27148c-14.065-0.6658-28.233-1.5117-42.254 0.15234-5.5901 1.0402-11.564 4.5209-12.914 10.414-0.45006 4.5603 3.3038 8.0948 6.8223 10.35 8.6606 6.988 12.235 18.902 10.564 29.688-0.88827 7.026-2.4835 18.043-5.8242 24.174-1.8302 4.5751 1.7044 8.0238 6.2715 10.432 6.8404 4.4663 13.611 0.42517 17.42-7.1016 3.3734-7.1966 1.5224-16.02 6.3613-22.656 1.0953-1.529 3.3851-2.2869 4.8047-0.73047 1.6344 1.3045 1.4809 3.506 1.3066 5.3379 0.49814 6.2392 0.8409 12.491 1.5195 18.715 6.129-3.6955 8.8168-10.899 10.068-17.615 20.142-8.7131 26.892-20.127 33.449-31.838 1.1357-1.1544 3.5859-3.332 3.5859-3.332 5.2408-4.4404 11.402-7.8411 18.232-8.9785 8.4765-1.5458 16.94-3.2449 25.523-4.1035 17.49-1.9559 35.184-1.5924 52.645 0.49805l20.859 1.6934c8.8683 1.3027 17.746 2.7584 26.418 5.041 8.0337 2.2645 12.704 13.308 17.367 20.236 16.459 43.63 28.953 14.046 20.625-5.9082-3.4359-13.212-5.7348-25.641-13.98-36.648-2.2201-1.6471-5.0629-2.0859-8.1133-2.0449z"/><path d="m333.11 488.83 17.35 0.44037c3.4481 0.0874 1.2558-58.443 0.94941-73.935-0.71851-36.326-5.8817-78.831-2.8988-97.966-5.2029-18.85-13.474-25.607-24.128 0.51334-4.63 8.529-4.8185 23.45-0.25508 30.366 16.283 24.679 11.595 34.661 12.576 50.23 0.74515 30.757 1.1258 60.012-3.5935 90.35z"/></svg>